<svg xmlns="http://www.w3.org/2000/svg" width="100%" height="100%" viewBox="0 0 669 669" version="1.1" fill-rule="evenodd">
  <defs>
    <linearGradient id="a" x1="0" y1="0" x2="1" y2="0" gradientUnits="userSpaceOnUse" gradientTransform="matrix(1.38162e-14,222,-225.636,1.35936e-14,329.318,216)">
      <stop offset="0" stop-color="#03c160" stop-opacity="1"/>
      <stop offset="1" stop-color="#03c576" stop-opacity="1"/>
    </linearGradient>
    <linearGradient id="b" x1="0" y1="0" x2="1" y2="0" gradientUnits="userSpaceOnUse" gradientTransform="matrix(7.80211e-14,768,-1274.18,4.70264e-14,1320.68,-57)">
      <stop offset="0" stop-color="#03c160" stop-opacity="1"/>
      <stop offset="1" stop-color="#03c576" stop-opacity="1"/>
    </linearGradient>
    <filter id="s">
      <feDropShadow dx="0" dy="10" stdDeviation="10" flood-opacity="0.35"/>
    </filter>
  </defs>
  <path d="M237.602 18l193.796 0c61.074 0 91.611 0 124.482 10.394 35.891 13.063 64.163 41.335 77.226 77.226 10.394 32.871 10.394 63.408 10.394 124.482l0 193.796c0 61.074 0 91.611-10.394 124.482 -13.063 35.891-41.335 64.163-77.226 77.226 -32.871 10.394-63.408 10.394-124.482 10.394l-193.796 0c-61.074 0-91.611 0-124.482-10.394 -35.891-13.063-64.163-41.335-77.226-77.226 -10.394-32.871-10.394-63.408-10.394-124.482l0-193.796c0-61.074 0-91.611 10.394-124.482 13.063-35.891 41.335-64.163 77.226-77.226 32.871-10.394 63.408-10.394 124.482-10.394" fill-opacity="0.96" fill="#fff" filter="url(#s)"/>
  <rect x="250.5" y="216" width="306" height="222" fill="url(#a)"/>
  <path d="M232.5 216l-21 0c-61.263 0-111 49.737-111 111 0 61.263 49.737 111 111 111l21 0 0-222Zm-39 111c0-12.418-10.082-22.5-22.5-22.5 -12.418 0-22.5 10.082-22.5 22.5 0 12.418 10.082 22.5 22.5 22.5 12.418 0 22.5-10.082 22.5-22.5Z" fill="url(#b)"/>
</svg>
